<svg width="638" height="429" viewBox="0 0 638 429" fill="none" xmlns="http://www.w3.org/2000/svg">
<path d="M16 411C25.5 379.833 70.8 316 182 316C321 316 346 262.5 346 222.5C346 182.5 381 128 456.5 128C532 128 622 100.5 622 34.5" stroke="white"/>
<rect x="1" y="395" width="30" height="30" fill="#BD0007"/>
<rect x="1" y="395" width="30" height="30" stroke="white" stroke-width="2"/>
<rect x="11" y="405" width="10" height="10" fill="white"/>
<rect x="177" y="311" width="10" height="10" fill="white"/>
<rect x="341" y="217" width="10" height="10" fill="white"/>
<rect x="451" y="123" width="10" height="10" fill="white"/>
<rect x="607" y="19" width="30" height="30" fill="white"/>
<rect x="607" y="19" width="30" height="30" stroke="white" stroke-width="2"/>
<rect x="617" y="29" width="10" height="10" fill="#133D8D"/>
<path d="M58.672 415.048V418H46.36C46.376 417.248 46.472 416.56 46.648 415.936C46.84 415.296 47.056 414.76 47.296 414.328C47.552 413.896 47.936 413.44 48.448 412.96C48.96 412.48 49.408 412.096 49.792 411.808C50.192 411.52 50.768 411.12 51.52 410.608C51.616 410.544 51.872 410.376 52.288 410.104C52.704 409.832 52.992 409.64 53.152 409.528C53.312 409.416 53.552 409.224 53.872 408.952C54.192 408.664 54.416 408.416 54.544 408.208C54.688 408 54.824 407.744 54.952 407.44C55.08 407.12 55.144 406.792 55.144 406.456C55.144 405.72 54.92 405.136 54.472 404.704C54.04 404.256 53.464 404.032 52.744 404.032C51.016 404.032 50.104 405.248 50.008 407.68H46.744V407.32C46.744 405.416 47.296 403.904 48.4 402.784C49.504 401.648 50.992 401.08 52.864 401.08C54.56 401.08 55.936 401.56 56.992 402.52C58.048 403.464 58.576 404.696 58.576 406.216C58.576 407.448 58.296 408.432 57.736 409.168C57.176 409.904 56.296 410.68 55.096 411.496C54.936 411.608 54.64 411.808 54.208 412.096C53.776 412.368 53.432 412.592 53.176 412.768C52.936 412.944 52.64 413.168 52.288 413.44C51.936 413.712 51.632 413.984 51.376 414.256C51.12 414.512 50.904 414.776 50.728 415.048H58.672ZM67.2319 401.104C68.1599 401.104 68.9839 401.28 69.7039 401.632C70.4399 401.984 71.0319 402.44 71.4799 403C71.9279 403.56 72.2959 404.224 72.5839 404.992C72.8879 405.76 73.0959 406.528 73.2079 407.296C73.3199 408.064 73.3759 408.872 73.3759 409.72C73.3759 412.392 72.8319 414.488 71.7439 416.008C70.6559 417.528 69.1599 418.288 67.2559 418.288C65.3039 418.288 63.7759 417.536 62.6719 416.032C61.5839 414.512 61.0399 412.408 61.0399 409.72C61.0399 408.648 61.1439 407.64 61.3519 406.696C61.5599 405.736 61.8879 404.824 62.3359 403.96C62.7839 403.08 63.4239 402.384 64.2559 401.872C65.1039 401.36 66.0959 401.104 67.2319 401.104ZM67.2079 403.912C66.7599 403.912 66.3679 404.008 66.0319 404.2C65.6959 404.392 65.4239 404.68 65.2159 405.064C65.0239 405.432 64.8639 405.792 64.7359 406.144C64.6239 406.48 64.5439 406.928 64.4959 407.488C64.4479 408.032 64.4159 408.448 64.3999 408.736C64.3999 409.024 64.3999 409.408 64.3999 409.888C64.3999 413.648 65.3439 415.528 67.2319 415.528C69.0879 415.528 70.0159 413.592 70.0159 409.72C70.0159 407.72 69.7919 406.256 69.3439 405.328C68.8959 404.384 68.1839 403.912 67.2079 403.912ZM84.5759 401.2V418H80.9519V407.08H76.8719V404.56H77.3039C79.8479 404.56 81.3359 403.44 81.7679 401.2H84.5759ZM90.3038 413.776H93.5438C93.8158 415.056 94.5838 415.696 95.8478 415.696C96.4398 415.696 96.9358 415.536 97.3358 415.216C97.7518 414.896 98.0638 414.448 98.2718 413.872C98.4798 413.296 98.6318 412.776 98.7278 412.312C98.8238 411.832 98.8958 411.28 98.9438 410.656C98.0318 411.952 96.8318 412.6 95.3438 412.6C93.7918 412.6 92.5118 412.08 91.5038 411.04C90.5118 410 90.0158 408.672 90.0158 407.056C90.0158 405.344 90.5918 403.92 91.7438 402.784C92.8958 401.632 94.3358 401.056 96.0638 401.056C97.1838 401.056 98.1598 401.296 98.9918 401.776C99.8398 402.24 100.496 402.872 100.96 403.672C101.424 404.472 101.768 405.336 101.992 406.264C102.216 407.192 102.328 408.184 102.328 409.24C102.328 410.328 102.216 411.376 101.992 412.384C101.768 413.392 101.416 414.352 100.936 415.264C100.472 416.176 99.7998 416.912 98.9198 417.472C98.0398 418.016 97.0158 418.288 95.8478 418.288C94.3118 418.288 93.0478 417.88 92.0558 417.064C91.0638 416.248 90.4798 415.152 90.3038 413.776ZM95.9918 403.864C95.2398 403.864 94.6078 404.16 94.0958 404.752C93.5998 405.328 93.3518 406.056 93.3518 406.936C93.3518 407.832 93.5998 408.568 94.0958 409.144C94.5918 409.72 95.2318 410.008 96.0158 410.008C96.7838 410.008 97.4158 409.72 97.9118 409.144C98.4238 408.568 98.6798 407.84 98.6798 406.96C98.6798 406.08 98.4238 405.344 97.9118 404.752C97.3998 404.16 96.7598 403.864 95.9918 403.864Z" fill="white"/>
<path d="M165.7 351.048V354H153.388C153.404 353.248 153.5 352.56 153.676 351.936C153.868 351.296 154.084 350.76 154.324 350.328C154.58 349.896 154.964 349.44 155.476 348.96C155.988 348.48 156.436 348.096 156.82 347.808C157.22 347.52 157.796 347.12 158.548 346.608C158.644 346.544 158.9 346.376 159.316 346.104C159.732 345.832 160.02 345.64 160.18 345.528C160.34 345.416 160.58 345.224 160.9 344.952C161.22 344.664 161.444 344.416 161.572 344.208C161.716 344 161.852 343.744 161.98 343.44C162.108 343.12 162.172 342.792 162.172 342.456C162.172 341.72 161.948 341.136 161.5 340.704C161.068 340.256 160.492 340.032 159.772 340.032C158.044 340.032 157.132 341.248 157.036 343.68H153.772V343.32C153.772 341.416 154.324 339.904 155.428 338.784C156.532 337.648 158.02 337.08 159.892 337.08C161.588 337.08 162.964 337.56 164.02 338.52C165.076 339.464 165.604 340.696 165.604 342.216C165.604 343.448 165.324 344.432 164.764 345.168C164.204 345.904 163.324 346.68 162.124 347.496C161.964 347.608 161.668 347.808 161.236 348.096C160.804 348.368 160.46 348.592 160.204 348.768C159.964 348.944 159.668 349.168 159.316 349.44C158.964 349.712 158.66 349.984 158.404 350.256C158.148 350.512 157.932 350.776 157.756 351.048H165.7ZM174.26 337.104C175.188 337.104 176.012 337.28 176.732 337.632C177.468 337.984 178.06 338.44 178.508 339C178.956 339.56 179.324 340.224 179.612 340.992C179.916 341.76 180.124 342.528 180.236 343.296C180.348 344.064 180.404 344.872 180.404 345.72C180.404 348.392 179.86 350.488 178.772 352.008C177.684 353.528 176.188 354.288 174.284 354.288C172.332 354.288 170.804 353.536 169.7 352.032C168.612 350.512 168.068 348.408 168.068 345.72C168.068 344.648 168.172 343.64 168.38 342.696C168.588 341.736 168.916 340.824 169.364 339.96C169.812 339.08 170.452 338.384 171.284 337.872C172.132 337.36 173.124 337.104 174.26 337.104ZM174.236 339.912C173.788 339.912 173.396 340.008 173.06 340.2C172.724 340.392 172.452 340.68 172.244 341.064C172.052 341.432 171.892 341.792 171.764 342.144C171.652 342.48 171.572 342.928 171.524 343.488C171.476 344.032 171.444 344.448 171.428 344.736C171.428 345.024 171.428 345.408 171.428 345.888C171.428 349.648 172.372 351.528 174.26 351.528C176.116 351.528 177.044 349.592 177.044 345.72C177.044 343.72 176.82 342.256 176.372 341.328C175.924 340.384 175.212 339.912 174.236 339.912ZM194.772 351.048V354H182.46C182.476 353.248 182.572 352.56 182.748 351.936C182.94 351.296 183.156 350.76 183.396 350.328C183.652 349.896 184.036 349.44 184.548 348.96C185.06 348.48 185.508 348.096 185.892 347.808C186.292 347.52 186.868 347.12 187.62 346.608C187.716 346.544 187.972 346.376 188.388 346.104C188.804 345.832 189.092 345.64 189.252 345.528C189.412 345.416 189.652 345.224 189.972 344.952C190.292 344.664 190.516 344.416 190.644 344.208C190.788 344 190.924 343.744 191.052 343.44C191.18 343.12 191.244 342.792 191.244 342.456C191.244 341.72 191.02 341.136 190.572 340.704C190.14 340.256 189.564 340.032 188.844 340.032C187.116 340.032 186.204 341.248 186.108 343.68H182.844V343.32C182.844 341.416 183.396 339.904 184.5 338.784C185.604 337.648 187.092 337.08 188.964 337.08C190.66 337.08 192.036 337.56 193.092 338.52C194.148 339.464 194.676 340.696 194.676 342.216C194.676 343.448 194.396 344.432 193.836 345.168C193.276 345.904 192.396 346.68 191.196 347.496C191.036 347.608 190.74 347.808 190.308 348.096C189.876 348.368 189.532 348.592 189.276 348.768C189.036 348.944 188.74 349.168 188.388 349.44C188.036 349.712 187.732 349.984 187.476 350.256C187.22 350.512 187.004 350.776 186.828 351.048H194.772ZM203.332 337.104C204.26 337.104 205.084 337.28 205.804 337.632C206.54 337.984 207.132 338.44 207.58 339C208.028 339.56 208.396 340.224 208.684 340.992C208.988 341.76 209.196 342.528 209.308 343.296C209.42 344.064 209.476 344.872 209.476 345.72C209.476 348.392 208.932 350.488 207.844 352.008C206.756 353.528 205.26 354.288 203.356 354.288C201.404 354.288 199.876 353.536 198.772 352.032C197.684 350.512 197.14 348.408 197.14 345.72C197.14 344.648 197.244 343.64 197.452 342.696C197.66 341.736 197.988 340.824 198.436 339.96C198.884 339.08 199.524 338.384 200.356 337.872C201.204 337.36 202.196 337.104 203.332 337.104ZM203.308 339.912C202.86 339.912 202.468 340.008 202.132 340.2C201.796 340.392 201.524 340.68 201.316 341.064C201.124 341.432 200.964 341.792 200.836 342.144C200.724 342.48 200.644 342.928 200.596 343.488C200.548 344.032 200.516 344.448 200.5 344.736C200.5 345.024 200.5 345.408 200.5 345.888C200.5 349.648 201.444 351.528 203.332 351.528C205.188 351.528 206.116 349.592 206.116 345.72C206.116 343.72 205.892 342.256 205.444 341.328C204.996 340.384 204.284 339.912 203.308 339.912Z" fill="white"/>
<path d="M373.7 225.048V228H361.388C361.404 227.248 361.5 226.56 361.676 225.936C361.868 225.296 362.084 224.76 362.324 224.328C362.58 223.896 362.964 223.44 363.476 222.96C363.988 222.48 364.436 222.096 364.82 221.808C365.22 221.52 365.796 221.12 366.548 220.608C366.644 220.544 366.9 220.376 367.316 220.104C367.732 219.832 368.02 219.64 368.18 219.528C368.34 219.416 368.58 219.224 368.9 218.952C369.22 218.664 369.444 218.416 369.572 218.208C369.716 218 369.852 217.744 369.98 217.44C370.108 217.12 370.172 216.792 370.172 216.456C370.172 215.72 369.948 215.136 369.5 214.704C369.068 214.256 368.492 214.032 367.772 214.032C366.044 214.032 365.132 215.248 365.036 217.68H361.772V217.32C361.772 215.416 362.324 213.904 363.428 212.784C364.532 211.648 366.02 211.08 367.892 211.08C369.588 211.08 370.964 211.56 372.02 212.52C373.076 213.464 373.604 214.696 373.604 216.216C373.604 217.448 373.324 218.432 372.764 219.168C372.204 219.904 371.324 220.68 370.124 221.496C369.964 221.608 369.668 221.808 369.236 222.096C368.804 222.368 368.46 222.592 368.204 222.768C367.964 222.944 367.668 223.168 367.316 223.44C366.964 223.712 366.66 223.984 366.404 224.256C366.148 224.512 365.932 224.776 365.756 225.048H373.7ZM382.26 211.104C383.188 211.104 384.012 211.28 384.732 211.632C385.468 211.984 386.06 212.44 386.508 213C386.956 213.56 387.324 214.224 387.612 214.992C387.916 215.76 388.124 216.528 388.236 217.296C388.348 218.064 388.404 218.872 388.404 219.72C388.404 222.392 387.86 224.488 386.772 226.008C385.684 227.528 384.188 228.288 382.284 228.288C380.332 228.288 378.804 227.536 377.7 226.032C376.612 224.512 376.068 222.408 376.068 219.72C376.068 218.648 376.172 217.64 376.38 216.696C376.588 215.736 376.916 214.824 377.364 213.96C377.812 213.08 378.452 212.384 379.284 211.872C380.132 211.36 381.124 211.104 382.26 211.104ZM382.236 213.912C381.788 213.912 381.396 214.008 381.06 214.2C380.724 214.392 380.452 214.68 380.244 215.064C380.052 215.432 379.892 215.792 379.764 216.144C379.652 216.48 379.572 216.928 379.524 217.488C379.476 218.032 379.444 218.448 379.428 218.736C379.428 219.024 379.428 219.408 379.428 219.888C379.428 223.648 380.372 225.528 382.26 225.528C384.116 225.528 385.044 223.592 385.044 219.72C385.044 217.72 384.82 216.256 384.372 215.328C383.924 214.384 383.212 213.912 382.236 213.912ZM402.772 225.048V228H390.46C390.476 227.248 390.572 226.56 390.748 225.936C390.94 225.296 391.156 224.76 391.396 224.328C391.652 223.896 392.036 223.44 392.548 222.96C393.06 222.48 393.508 222.096 393.892 221.808C394.292 221.52 394.868 221.12 395.62 220.608C395.716 220.544 395.972 220.376 396.388 220.104C396.804 219.832 397.092 219.64 397.252 219.528C397.412 219.416 397.652 219.224 397.972 218.952C398.292 218.664 398.516 218.416 398.644 218.208C398.788 218 398.924 217.744 399.052 217.44C399.18 217.12 399.244 216.792 399.244 216.456C399.244 215.72 399.02 215.136 398.572 214.704C398.14 214.256 397.564 214.032 396.844 214.032C395.116 214.032 394.204 215.248 394.108 217.68H390.844V217.32C390.844 215.416 391.396 213.904 392.5 212.784C393.604 211.648 395.092 211.08 396.964 211.08C398.66 211.08 400.036 211.56 401.092 212.52C402.148 213.464 402.676 214.696 402.676 216.216C402.676 217.448 402.396 218.432 401.836 219.168C401.276 219.904 400.396 220.68 399.196 221.496C399.036 221.608 398.74 221.808 398.308 222.096C397.876 222.368 397.532 222.592 397.276 222.768C397.036 222.944 396.74 223.168 396.388 223.44C396.036 223.712 395.732 223.984 395.476 224.256C395.22 224.512 395.004 224.776 394.828 225.048H402.772ZM414.14 211.2V228H410.516V217.08H406.436V214.56H406.868C409.412 214.56 410.9 213.44 411.332 211.2H414.14Z" fill="white"/>
<path d="M439.7 163.048V166H427.388C427.404 165.248 427.5 164.56 427.676 163.936C427.868 163.296 428.084 162.76 428.324 162.328C428.58 161.896 428.964 161.44 429.476 160.96C429.988 160.48 430.436 160.096 430.82 159.808C431.22 159.52 431.796 159.12 432.548 158.608C432.644 158.544 432.9 158.376 433.316 158.104C433.732 157.832 434.02 157.64 434.18 157.528C434.34 157.416 434.58 157.224 434.9 156.952C435.22 156.664 435.444 156.416 435.572 156.208C435.716 156 435.852 155.744 435.98 155.44C436.108 155.12 436.172 154.792 436.172 154.456C436.172 153.72 435.948 153.136 435.5 152.704C435.068 152.256 434.492 152.032 433.772 152.032C432.044 152.032 431.132 153.248 431.036 155.68H427.772V155.32C427.772 153.416 428.324 151.904 429.428 150.784C430.532 149.648 432.02 149.08 433.892 149.08C435.588 149.08 436.964 149.56 438.02 150.52C439.076 151.464 439.604 152.696 439.604 154.216C439.604 155.448 439.324 156.432 438.764 157.168C438.204 157.904 437.324 158.68 436.124 159.496C435.964 159.608 435.668 159.808 435.236 160.096C434.804 160.368 434.46 160.592 434.204 160.768C433.964 160.944 433.668 161.168 433.316 161.44C432.964 161.712 432.66 161.984 432.404 162.256C432.148 162.512 431.932 162.776 431.756 163.048H439.7ZM448.26 149.104C449.188 149.104 450.012 149.28 450.732 149.632C451.468 149.984 452.06 150.44 452.508 151C452.956 151.56 453.324 152.224 453.612 152.992C453.916 153.76 454.124 154.528 454.236 155.296C454.348 156.064 454.404 156.872 454.404 157.72C454.404 160.392 453.86 162.488 452.772 164.008C451.684 165.528 450.188 166.288 448.284 166.288C446.332 166.288 444.804 165.536 443.7 164.032C442.612 162.512 442.068 160.408 442.068 157.72C442.068 156.648 442.172 155.64 442.38 154.696C442.588 153.736 442.916 152.824 443.364 151.96C443.812 151.08 444.452 150.384 445.284 149.872C446.132 149.36 447.124 149.104 448.26 149.104ZM448.236 151.912C447.788 151.912 447.396 152.008 447.06 152.2C446.724 152.392 446.452 152.68 446.244 153.064C446.052 153.432 445.892 153.792 445.764 154.144C445.652 154.48 445.572 154.928 445.524 155.488C445.476 156.032 445.444 156.448 445.428 156.736C445.428 157.024 445.428 157.408 445.428 157.888C445.428 161.648 446.372 163.528 448.26 163.528C450.116 163.528 451.044 161.592 451.044 157.72C451.044 155.72 450.82 154.256 450.372 153.328C449.924 152.384 449.212 151.912 448.236 151.912ZM468.772 163.048V166H456.46C456.476 165.248 456.572 164.56 456.748 163.936C456.94 163.296 457.156 162.76 457.396 162.328C457.652 161.896 458.036 161.44 458.548 160.96C459.06 160.48 459.508 160.096 459.892 159.808C460.292 159.52 460.868 159.12 461.62 158.608C461.716 158.544 461.972 158.376 462.388 158.104C462.804 157.832 463.092 157.64 463.252 157.528C463.412 157.416 463.652 157.224 463.972 156.952C464.292 156.664 464.516 156.416 464.644 156.208C464.788 156 464.924 155.744 465.052 155.44C465.18 155.12 465.244 154.792 465.244 154.456C465.244 153.72 465.02 153.136 464.572 152.704C464.14 152.256 463.564 152.032 462.844 152.032C461.116 152.032 460.204 153.248 460.108 155.68H456.844V155.32C456.844 153.416 457.396 151.904 458.5 150.784C459.604 149.648 461.092 149.08 462.964 149.08C464.66 149.08 466.036 149.56 467.092 150.52C468.148 151.464 468.676 152.696 468.676 154.216C468.676 155.448 468.396 156.432 467.836 157.168C467.276 157.904 466.396 158.68 465.196 159.496C465.036 159.608 464.74 159.808 464.308 160.096C463.876 160.368 463.532 160.592 463.276 160.768C463.036 160.944 462.74 161.168 462.388 161.44C462.036 161.712 461.732 161.984 461.476 162.256C461.22 162.512 461.004 162.776 460.828 163.048H468.772ZM483.308 163.048V166H470.996C471.012 165.248 471.108 164.56 471.284 163.936C471.476 163.296 471.692 162.76 471.932 162.328C472.188 161.896 472.572 161.44 473.084 160.96C473.596 160.48 474.044 160.096 474.428 159.808C474.828 159.52 475.404 159.12 476.156 158.608C476.252 158.544 476.508 158.376 476.924 158.104C477.34 157.832 477.628 157.64 477.788 157.528C477.948 157.416 478.188 157.224 478.508 156.952C478.828 156.664 479.052 156.416 479.18 156.208C479.324 156 479.46 155.744 479.588 155.44C479.716 155.12 479.78 154.792 479.78 154.456C479.78 153.72 479.556 153.136 479.108 152.704C478.676 152.256 478.1 152.032 477.38 152.032C475.652 152.032 474.74 153.248 474.644 155.68H471.38V155.32C471.38 153.416 471.932 151.904 473.036 150.784C474.14 149.648 475.628 149.08 477.5 149.08C479.196 149.08 480.572 149.56 481.628 150.52C482.684 151.464 483.212 152.696 483.212 154.216C483.212 155.448 482.932 156.432 482.372 157.168C481.812 157.904 480.932 158.68 479.732 159.496C479.572 159.608 479.276 159.808 478.844 160.096C478.412 160.368 478.068 160.592 477.812 160.768C477.572 160.944 477.276 161.168 476.924 161.44C476.572 161.712 476.268 161.984 476.012 162.256C475.756 162.512 475.54 162.776 475.364 163.048H483.308Z" fill="white"/>
<path d="M547.7 20.048V23H535.388C535.404 22.248 535.5 21.56 535.676 20.936C535.868 20.296 536.084 19.76 536.324 19.328C536.58 18.896 536.964 18.44 537.476 17.96C537.988 17.48 538.436 17.096 538.82 16.808C539.22 16.52 539.796 16.12 540.548 15.608C540.644 15.544 540.9 15.376 541.316 15.104C541.732 14.832 542.02 14.64 542.18 14.528C542.34 14.416 542.58 14.224 542.9 13.952C543.22 13.664 543.444 13.416 543.572 13.208C543.716 13 543.852 12.744 543.98 12.44C544.108 12.12 544.172 11.792 544.172 11.456C544.172 10.72 543.948 10.136 543.5 9.704C543.068 9.256 542.492 9.032 541.772 9.032C540.044 9.032 539.132 10.248 539.036 12.68H535.772V12.32C535.772 10.416 536.324 8.904 537.428 7.784C538.532 6.648 540.02 6.08 541.892 6.08C543.588 6.08 544.964 6.56 546.02 7.52C547.076 8.464 547.604 9.696 547.604 11.216C547.604 12.448 547.324 13.432 546.764 14.168C546.204 14.904 545.324 15.68 544.124 16.496C543.964 16.608 543.668 16.808 543.236 17.096C542.804 17.368 542.46 17.592 542.204 17.768C541.964 17.944 541.668 18.168 541.316 18.44C540.964 18.712 540.66 18.984 540.404 19.256C540.148 19.512 539.932 19.776 539.756 20.048H547.7ZM556.26 6.104C557.188 6.104 558.012 6.28 558.732 6.632C559.468 6.984 560.06 7.44 560.508 8C560.956 8.56 561.324 9.224 561.612 9.992C561.916 10.76 562.124 11.528 562.236 12.296C562.348 13.064 562.404 13.872 562.404 14.72C562.404 17.392 561.86 19.488 560.772 21.008C559.684 22.528 558.188 23.288 556.284 23.288C554.332 23.288 552.804 22.536 551.7 21.032C550.612 19.512 550.068 17.408 550.068 14.72C550.068 13.648 550.172 12.64 550.38 11.696C550.588 10.736 550.916 9.824 551.364 8.96C551.812 8.08 552.452 7.384 553.284 6.872C554.132 6.36 555.124 6.104 556.26 6.104ZM556.236 8.912C555.788 8.912 555.396 9.008 555.06 9.2C554.724 9.392 554.452 9.68 554.244 10.064C554.052 10.432 553.892 10.792 553.764 11.144C553.652 11.48 553.572 11.928 553.524 12.488C553.476 13.032 553.444 13.448 553.428 13.736C553.428 14.024 553.428 14.408 553.428 14.888C553.428 18.648 554.372 20.528 556.26 20.528C558.116 20.528 559.044 18.592 559.044 14.72C559.044 12.72 558.82 11.256 558.372 10.328C557.924 9.384 557.212 8.912 556.236 8.912ZM576.772 20.048V23H564.46C564.476 22.248 564.572 21.56 564.748 20.936C564.94 20.296 565.156 19.76 565.396 19.328C565.652 18.896 566.036 18.44 566.548 17.96C567.06 17.48 567.508 17.096 567.892 16.808C568.292 16.52 568.868 16.12 569.62 15.608C569.716 15.544 569.972 15.376 570.388 15.104C570.804 14.832 571.092 14.64 571.252 14.528C571.412 14.416 571.652 14.224 571.972 13.952C572.292 13.664 572.516 13.416 572.644 13.208C572.788 13 572.924 12.744 573.052 12.44C573.18 12.12 573.244 11.792 573.244 11.456C573.244 10.72 573.02 10.136 572.572 9.704C572.14 9.256 571.564 9.032 570.844 9.032C569.116 9.032 568.204 10.248 568.108 12.68H564.844V12.32C564.844 10.416 565.396 8.904 566.5 7.784C567.604 6.648 569.092 6.08 570.964 6.08C572.66 6.08 574.036 6.56 575.092 7.52C576.148 8.464 576.676 9.696 576.676 11.216C576.676 12.448 576.396 13.432 575.836 14.168C575.276 14.904 574.396 15.68 573.196 16.496C573.036 16.608 572.74 16.808 572.308 17.096C571.876 17.368 571.532 17.592 571.276 17.768C571.036 17.944 570.74 18.168 570.388 18.44C570.036 18.712 569.732 18.984 569.476 19.256C569.22 19.512 569.004 19.776 568.828 20.048H576.772ZM591.308 20.048V23H578.996C579.012 22.248 579.108 21.56 579.284 20.936C579.476 20.296 579.692 19.76 579.932 19.328C580.188 18.896 580.572 18.44 581.084 17.96C581.596 17.48 582.044 17.096 582.428 16.808C582.828 16.52 583.404 16.12 584.156 15.608C584.252 15.544 584.508 15.376 584.924 15.104C585.34 14.832 585.628 14.64 585.788 14.528C585.948 14.416 586.188 14.224 586.508 13.952C586.828 13.664 587.052 13.416 587.18 13.208C587.324 13 587.46 12.744 587.588 12.44C587.716 12.12 587.78 11.792 587.78 11.456C587.78 10.72 587.556 10.136 587.108 9.704C586.676 9.256 586.1 9.032 585.38 9.032C583.652 9.032 582.74 10.248 582.644 12.68H579.38V12.32C579.38 10.416 579.932 8.904 581.036 7.784C582.14 6.648 583.628 6.08 585.5 6.08C587.196 6.08 588.572 6.56 589.628 7.52C590.684 8.464 591.212 9.696 591.212 11.216C591.212 12.448 590.932 13.432 590.372 14.168C589.812 14.904 588.932 15.68 587.732 16.496C587.572 16.608 587.276 16.808 586.844 17.096C586.412 17.368 586.068 17.592 585.812 17.768C585.572 17.944 585.276 18.168 584.924 18.44C584.572 18.712 584.268 18.984 584.012 19.256C583.756 19.512 583.54 19.776 583.364 20.048H591.308Z" fill="white"/>
</svg>
